<?xml version="1.0" standalone="no"?>
<!DOCTYPE svg PUBLIC "-//W3C//DTD SVG 20010904//EN"
 "http://www.w3.org/TR/2001/REC-SVG-20010904/DTD/svg10.dtd">
<svg version="1.0" xmlns="http://www.w3.org/2000/svg"
 width="497.000000pt" height="497.000000pt" viewBox="0 0 497.000000 497.000000"
 preserveAspectRatio="xMidYMid meet">
<metadata>
Created by potrace 1.11, written by Peter Selinger 2001-2013
</metadata>
<g transform="translate(0.000000,497.000000) scale(0.100000,-0.100000)"
fill="#000000" stroke="none">
<path d="M2337 3974 c-15 -8 -27 -11 -27 -6 0 4 -12 7 -27 6 -16 -1 -28 -3
-28 -4 0 -2 -37 -9 -70 -12 -16 -1 -32 -6 -35 -9 -4 -6 -57 -17 -97 -21 -7 -1
-13 -4 -13 -8 0 -4 -6 -7 -12 -8 -15 -1 -52 -10 -55 -12 -2 -2 -7 -3 -12 -4
-5 0 -12 -4 -16 -8 -4 -4 -13 -4 -21 -1 -8 3 -14 0 -14 -6 0 -6 -6 -11 -12
-11 -15 0 -140 -58 -148 -68 -6 -8 -32 -25 -80 -51 -19 -10 -47 -30 -62 -44
-16 -15 -28 -23 -28 -19 0 4 -7 -2 -15 -12 -8 -11 -15 -16 -15 -12 0 4 -47
-39 -105 -95 -58 -56 -105 -109 -105 -116 0 -8 -4 -11 -10 -8 -5 3 -10 1 -10
-5 0 -6 -11 -23 -25 -38 -14 -15 -25 -30 -25 -35 0 -4 -9 -17 -20 -29 -11 -12
-20 -28 -20 -35 0 -7 -4 -13 -10 -13 -5 0 -10 -4 -10 -8 0 -5 -20 -45 -44 -90
-24 -44 -41 -84 -38 -87 3 -3 0 -5 -7 -5 -7 0 -10 -4 -7 -9 3 -4 -1 -16 -8
-27 -8 -10 -12 -24 -9 -31 3 -7 0 -13 -7 -13 -6 0 -8 -4 -5 -10 3 -5 1 -10 -5
-10 -6 0 -9 -4 -6 -9 3 -4 -3 -31 -14 -60 -10 -28 -19 -54 -19 -56 -1 -3 -1
-6 -2 -7 0 -2 -2 -13 -5 -25 -2 -12 -5 -28 -6 -35 -2 -7 -7 -16 -13 -20 -6 -5
-5 -8 3 -8 8 0 9 -5 3 -17 -18 -34 -31 -84 -20 -77 8 4 8 0 2 -12 -10 -23 -10
-45 0 -61 5 -8 3 -13 -3 -13 -8 0 -8 -6 0 -20 6 -11 7 -20 2 -20 -10 0 -9 -30
2 -48 4 -6 3 -12 -2 -12 -5 0 -9 -7 -9 -15 0 -8 3 -15 7 -15 4 0 7 -7 7 -15 0
-8 -3 -15 -7 -15 -9 0 -6 -53 5 -69 6 -10 4 -12 -4 -6 -10 6 -11 3 -3 -12 6
-11 12 -41 13 -66 2 -26 5 -47 9 -47 3 0 6 -16 7 -36 0 -20 5 -39 9 -43 5 -3
11 -22 12 -41 2 -19 8 -41 14 -48 6 -6 8 -12 4 -12 -3 0 0 -15 8 -34 8 -19 12
-37 8 -40 -3 -3 0 -6 7 -6 6 0 11 -6 9 -12 -1 -7 11 -38 27 -68 16 -30 30 -57
31 -60 1 -3 5 -15 9 -27 4 -13 11 -23 16 -23 5 0 8 -3 7 -7 -1 -5 6 -21 17
-38 64 -102 87 -135 113 -163 17 -18 28 -32 26 -32 -1 0 7 -11 19 -24 12 -13
38 -42 58 -64 20 -23 40 -38 43 -35 3 4 6 -1 6 -10 0 -8 8 -18 18 -21 9 -3 33
-21 54 -40 20 -18 51 -44 70 -57 18 -13 42 -31 52 -41 11 -10 26 -18 33 -18 7
0 13 -4 13 -9 0 -8 37 -24 53 -22 4 1 7 -3 7 -8 0 -10 27 -21 44 -20 5 0 12
-3 15 -8 8 -11 64 -37 75 -34 4 1 14 -3 20 -9 7 -5 16 -7 19 -3 4 3 7 1 7 -6
0 -7 4 -9 10 -6 5 3 10 2 10 -3 0 -5 6 -9 13 -10 22 -2 42 -8 65 -20 16 -9 22
-10 22 -1 0 8 4 8 15 -1 8 -7 15 -9 15 -4 0 5 4 4 8 -3 4 -7 27 -13 50 -14 24
-2 45 -6 47 -9 2 -3 23 -7 47 -8 24 -2 52 -5 63 -9 31 -9 85 -10 79 -1 -3 4 0
8 5 8 6 0 11 -5 11 -11 0 -6 8 -8 20 -4 10 3 28 1 40 -5 15 -8 20 -8 20 1 0 7
3 10 6 6 3 -3 17 -2 30 3 16 7 24 6 24 -1 0 -8 4 -8 14 0 10 8 16 9 21 1 4 -7
12 -7 26 1 11 5 27 9 37 7 9 -1 23 1 30 5 6 5 12 6 12 2 0 -3 9 -1 20 5 14 8
20 8 20 0 0 -8 6 -8 20 0 11 6 25 8 30 5 6 -3 10 -2 10 4 0 5 8 8 18 6 9 -1
30 4 45 12 15 7 32 11 37 8 6 -3 10 -1 10 6 0 7 3 10 6 6 4 -3 19 0 35 9 16 8
30 14 31 14 8 -3 44 15 50 24 5 7 8 6 8 -3 0 -11 3 -11 13 3 7 9 17 16 22 15
12 -4 91 37 100 50 3 6 12 8 20 4 8 -3 15 0 15 7 0 6 4 9 9 5 6 -3 14 3 20 12
6 10 11 14 11 10 0 -9 73 43 78 56 2 4 13 7 23 7 11 0 17 5 14 10 -3 6 -3 10
2 10 4 0 27 17 51 39 23 21 42 37 42 35 0 -2 21 20 48 49 26 29 55 59 64 68
10 9 15 19 11 23 -3 3 -2 6 4 6 12 0 95 105 118 149 8 17 20 31 25 31 6 0 10
7 10 15 0 9 6 18 13 21 7 2 14 14 14 26 1 12 8 25 15 29 7 5 9 9 4 9 -4 0 -1
11 8 25 9 14 13 25 9 25 -5 0 -3 4 2 8 9 6 30 53 39 87 2 6 6 17 9 25 27 65
43 119 41 133 -1 9 1 17 5 17 7 0 9 12 13 82 2 27 7 48 11 48 5 0 6 4 2 9 -3
5 -1 13 5 16 8 5 7 11 -1 21 -9 11 -9 14 1 14 10 0 10 3 0 15 -8 10 -9 15 -2
15 6 0 9 7 6 15 -4 8 -1 15 5 15 9 0 9 5 1 20 -8 15 -8 20 1 20 8 0 8 4 -1 15
-8 10 -9 15 -1 15 7 0 8 8 1 25 -5 14 -6 25 -2 25 11 0 8 114 -3 123 -6 6 -6
10 2 14 10 3 9 11 -2 33 -10 19 -11 31 -4 35 6 4 6 11 1 18 -5 7 -10 19 -10
27 -3 42 -13 83 -27 110 -9 17 -13 30 -10 30 4 0 -2 21 -31 95 -4 11 -8 22 -9
25 -10 40 -50 130 -56 130 -5 0 -9 6 -9 13 0 18 -23 67 -32 67 -3 0 -10 15
-14 32 -8 41 -30 75 -71 114 -18 17 -33 33 -33 36 0 3 -16 22 -35 42 -19 21
-35 42 -35 47 0 5 -4 9 -9 9 -11 0 -111 101 -111 112 0 6 -7 8 -15 4 -9 -3
-15 0 -15 9 0 8 -4 15 -10 15 -5 0 -20 9 -32 20 -13 10 -26 19 -30 20 -5 0
-21 14 -38 32 -16 17 -30 28 -30 24 0 -3 -23 10 -51 30 -29 20 -57 37 -63 38
-6 1 -22 8 -36 16 -14 7 -25 12 -25 11 0 -2 -18 5 -40 14 -22 10 -43 17 -47
17 -5 -1 -8 3 -8 9 0 5 -4 8 -9 4 -5 -3 -13 0 -17 6 -4 8 -9 7 -15 -2 -7 -11
-9 -11 -9 -1 0 7 -4 11 -9 7 -5 -3 -12 -1 -16 5 -3 5 -17 10 -31 10 -13 0 -24
5 -24 12 0 6 -3 8 -6 5 -4 -3 -15 -2 -25 4 -14 7 -19 6 -19 -2 0 -8 -7 -6 -19
5 -14 13 -21 14 -26 6 -5 -9 -10 -9 -14 -1 -4 6 -22 11 -40 13 -18 1 -34 5
-36 8 -2 4 -18 5 -34 4 -17 -1 -31 1 -31 5 0 10 -64 7 -72 -4 -5 -6 -8 -4 -8
5 0 13 -1 13 -10 0 -9 -13 -10 -13 -10 0 0 13 -1 13 -10 0 -5 -8 -10 -10 -10
-5 0 6 -13 10 -30 10 -16 0 -30 -3 -30 -7 0 -4 -11 -3 -25 2 -18 7 -25 6 -25
-3 0 -9 -2 -9 -8 0 -5 8 -14 7 -35 -3z m34 -68 c4 -4 16 -3 28 3 16 9 21 9 21
0 0 -8 4 -8 14 0 17 14 127 11 138 -3 4 -6 13 -4 22 3 9 8 16 9 16 4 0 -5 12
-10 28 -11 31 -3 67 -9 67 -13 0 -1 16 -3 36 -4 19 -1 40 -4 45 -7 5 -3 38
-13 74 -22 35 -9 67 -21 71 -27 3 -6 9 -10 13 -10 24 3 36 -1 36 -14 0 -8 -5
-15 -11 -15 -5 0 -7 -4 -4 -10 3 -5 0 -10 -7 -11 -10 0 -10 -2 0 -6 6 -2 10
-9 6 -14 -5 -9 2 -12 29 -11 20 0 57 14 57 21 0 4 11 7 25 7 14 0 25 -4 25 -8
0 -4 7 -8 15 -8 8 0 15 -7 15 -15 0 -8 5 -15 10 -15 7 0 7 -6 1 -19 -6 -10 -8
-21 -4 -24 3 -4 1 -13 -5 -20 -7 -8 -9 -17 -5 -20 3 -4 0 -7 -7 -7 -7 0 -11
-3 -7 -6 3 -3 -5 -30 -18 -60 -14 -31 -20 -56 -14 -59 5 -4 7 -11 4 -16 -4 -5
-1 -10 4 -10 6 -1 17 -2 24 -3 6 -1 19 5 27 13 16 16 49 85 56 115 6 31 27 38
41 13 7 -12 12 -30 13 -39 0 -10 5 -18 12 -18 6 0 8 -3 5 -7 -4 -3 -2 -12 4
-20 6 -7 8 -13 4 -13 -4 0 4 -11 20 -25 l27 -26 18 21 c17 20 17 24 4 57 -11
25 -12 39 -5 46 8 8 11 8 11 -1 0 -7 5 -12 11 -12 7 0 27 -15 45 -34 18 -19
35 -31 38 -28 3 3 6 -4 6 -16 0 -12 5 -22 11 -22 6 0 7 -5 2 -12 -4 -7 -8 -19
-9 -26 -3 -19 -7 -22 -35 -27 -13 -3 -25 -9 -27 -15 -2 -6 -7 -8 -12 -5 -4 2
-18 -4 -30 -15 -12 -11 -27 -17 -31 -14 -5 3 -9 0 -9 -6 0 -6 -4 -9 -9 -5 -5
3 -16 -3 -23 -14 -19 -28 -68 -33 -68 -7 0 7 -8 16 -17 20 -25 8 -55 28 -70
46 -7 8 -13 11 -13 7 0 -4 -10 1 -22 12 -11 11 -25 18 -30 15 -4 -3 -8 0 -8 6
0 6 -4 8 -10 5 -5 -3 -10 -1 -10 5 0 7 -6 10 -14 7 -7 -3 -19 0 -25 6 -8 8
-11 7 -11 -3 0 -13 -2 -13 -10 0 -6 10 -4 20 7 32 9 10 12 18 7 18 -5 0 -3 4
4 9 19 12 4 59 -25 79 -39 25 -62 22 -100 -14 -28 -27 -33 -36 -24 -52 6 -11
7 -22 4 -26 -3 -3 -1 -6 5 -6 6 0 10 -9 9 -20 -1 -12 -7 -18 -14 -16 -7 3 -13
1 -13 -5 0 -6 -4 -8 -9 -4 -5 3 -17 -2 -25 -11 -9 -8 -16 -13 -16 -10 0 5 -23
-7 -85 -45 -22 -13 -42 -24 -45 -24 -5 1 -10 -3 -67 -50 -40 -32 -44 -71 -10
-84 12 -5 29 -5 38 0 9 4 19 5 23 2 3 -3 6 -1 6 6 0 7 4 10 9 6 6 -3 13 1 18
8 4 7 24 19 43 27 19 8 41 20 48 27 21 20 41 16 37 -7 -2 -11 -1 -20 3 -20 8
0 15 -46 15 -92 0 -16 5 -28 11 -28 6 0 4 -5 -4 -10 -8 -5 -12 -10 -8 -10 4 0
-2 -24 -13 -52 -11 -29 -20 -55 -20 -58 1 -10 -11 -56 -19 -75 -30 -71 -40
-142 -18 -129 7 5 9 2 6 -7 -4 -10 1 -15 15 -16 20 -2 53 16 55 30 1 4 9 21
17 37 8 16 15 31 13 32 -4 6 35 118 42 118 4 0 7 7 8 15 1 8 3 22 4 30 1 8 10
15 20 15 11 0 16 -4 13 -10 -3 -5 -1 -10 4 -10 6 0 11 -10 11 -23 0 -13 4 -27
10 -33 5 -5 11 -18 13 -29 2 -11 8 -30 15 -41 6 -12 8 -24 5 -28 -3 -3 -1 -6
6 -6 7 0 9 -4 6 -10 -3 -5 -2 -10 4 -10 6 0 8 -7 5 -15 -4 -8 -1 -15 5 -15 6
0 8 -6 5 -13 -4 -12 33 -37 56 -37 15 0 40 56 30 66 -8 8 -20 52 -22 82 -1 6
-6 12 -11 12 -5 0 -7 7 -4 15 4 8 2 17 -4 20 -5 4 -7 11 -4 16 4 5 2 9 -3 9
-5 0 -9 6 -10 13 -4 30 -10 54 -19 77 -6 14 -10 49 -9 78 2 28 -1 52 -5 52 -4
0 -2 12 6 27 8 15 12 30 9 34 -6 11 35 2 50 -11 7 -5 16 -7 19 -3 4 3 7 0 7
-7 0 -7 3 -11 6 -7 3 3 15 -3 27 -14 11 -10 27 -19 34 -19 7 0 13 -5 13 -11 0
-6 14 -9 32 -7 22 2 36 10 44 26 11 22 64 59 64 45 0 -3 9 2 20 12 11 10 20
15 20 11 0 -4 6 -4 13 1 31 20 43 12 50 -32 1 -11 6 -26 10 -32 5 -8 4 -13 -2
-13 -6 0 -10 -3 -9 -7 4 -16 -14 -73 -22 -73 -5 0 -7 -6 -4 -14 3 -8 1 -17 -5
-21 -6 -3 -11 -17 -11 -31 0 -13 -4 -24 -9 -24 -4 0 -6 -10 -4 -23 8 -40 68
-29 71 13 1 3 9 23 18 45 10 22 17 43 16 48 -1 4 2 7 7 7 5 0 11 7 13 15 4 21
27 4 33 -25 2 -13 10 -27 17 -32 10 -6 9 -8 -2 -8 -10 0 -11 -3 -4 -8 7 -4 19
-24 27 -44 9 -21 23 -38 31 -38 9 0 18 0 21 0 3 0 4 1 3 3 -1 1 4 12 10 24 8
14 8 23 1 25 -5 2 -11 13 -12 26 0 12 -5 22 -9 22 -4 0 -8 9 -8 20 0 12 -9 39
-19 60 -12 25 -15 42 -9 46 6 4 5 10 -3 15 -11 7 -11 9 -1 9 7 0 10 5 7 10 -3
6 -4 19 0 30 8 25 31 16 39 -16 4 -13 11 -24 16 -24 6 0 10 -7 10 -15 0 -8 5
-15 12 -15 6 0 9 -3 5 -6 -5 -6 0 -14 29 -47 6 -7 17 -29 25 -50 7 -20 17 -37
22 -37 4 0 6 -4 3 -8 -3 -5 3 -25 14 -44 10 -20 16 -39 13 -42 -4 -3 -1 -6 6
-6 7 0 9 -4 6 -10 -3 -5 -1 -10 5 -10 7 0 10 -6 7 -14 -3 -7 -1 -18 4 -23 5
-5 10 -25 11 -46 2 -20 7 -37 12 -37 5 0 3 -7 -5 -16 -10 -13 -10 -17 2 -25 8
-5 10 -9 4 -9 -5 0 -3 -5 5 -10 13 -8 12 -10 -2 -10 -10 0 -18 -5 -18 -10 0
-6 -3 -9 -7 -9 -14 3 -73 -25 -73 -34 0 -4 -4 -6 -9 -2 -5 3 -17 -2 -25 -11
-9 -8 -16 -12 -16 -7 0 4 -7 -1 -15 -11 -8 -11 -15 -17 -15 -13 0 4 -12 0 -26
-9 -22 -15 -27 -15 -35 -3 -5 8 -9 10 -9 4 0 -5 -7 1 -16 13 -8 12 -21 22 -28
22 -8 0 -17 7 -20 16 -4 9 -9 14 -13 10 -3 -3 -12 3 -20 14 -8 11 -20 20 -26
20 -7 0 -23 9 -37 20 -14 11 -35 20 -47 20 -13 0 -23 5 -23 11 0 6 -6 9 -14 6
-8 -3 -20 1 -26 8 -9 11 -7 20 9 41 25 32 20 59 -16 90 -24 20 -73 22 -73 3 0
-5 -7 -9 -17 -9 -9 0 -14 -3 -10 -6 3 -4 0 -13 -8 -21 -11 -11 -12 -19 -5 -34
6 -10 8 -19 5 -19 -4 0 1 -8 10 -17 16 -16 16 -17 0 -30 -10 -7 -21 -10 -26
-8 -4 3 -10 1 -14 -5 -4 -6 -11 -8 -16 -5 -5 4 -9 2 -9 -4 0 -5 -16 -15 -35
-22 -19 -7 -35 -17 -35 -22 0 -4 -3 -6 -7 -4 -11 6 -158 -97 -156 -109 1 -6
-4 -11 -12 -11 -7 0 -11 5 -9 11 3 11 -8 20 -116 92 -30 21 -57 41 -58 46 -2
4 -8 6 -13 2 -5 -3 -9 0 -9 6 0 6 -4 8 -10 5 -5 -3 -10 -1 -10 5 0 6 -4 8 -10
5 -5 -3 -10 -2 -10 3 0 10 -31 23 -60 26 -8 1 -21 5 -27 9 -7 5 -17 6 -22 3
-22 -14 -17 24 5 40 13 11 24 29 24 42 0 35 -38 85 -61 79 -10 -3 -20 0 -21 5
-4 11 -42 -5 -64 -26 -20 -21 -36 -56 -24 -56 6 0 8 -4 5 -10 -3 -5 -1 -10 5
-10 6 0 8 -5 5 -10 -3 -6 0 -13 9 -16 8 -3 17 -12 20 -20 5 -12 1 -14 -15 -9
-15 5 -19 4 -15 -4 4 -6 0 -11 -10 -11 -26 0 -84 -23 -84 -33 0 -4 -4 -5 -10
-2 -5 3 -10 1 -10 -5 0 -6 -4 -8 -10 -5 -5 3 -10 2 -10 -3 0 -6 -17 -17 -38
-25 -21 -8 -44 -22 -51 -31 -7 -9 -17 -13 -22 -10 -5 3 -9 0 -9 -6 0 -6 -4 -9
-8 -6 -13 8 -86 -60 -78 -73 4 -6 2 -11 -5 -11 -8 0 -9 -3 0 -13 6 -8 7 -18 3
-22 -4 -5 -2 -5 5 -1 6 3 15 2 18 -4 5 -8 11 -7 21 1 8 6 14 8 14 5 0 -4 12 1
28 12 47 33 56 37 47 21 -6 -10 -3 -9 11 2 10 9 39 28 64 42 50 28 82 23 75
-13 -2 -11 0 -20 4 -20 4 0 9 -17 10 -37 3 -63 6 -78 16 -85 6 -5 6 -8 -1 -8
-6 0 -11 -6 -12 -12 -1 -13 -9 -48 -12 -58 -1 -3 -2 -8 -1 -12 0 -5 -3 -8 -7
-8 -4 0 -8 -8 -9 -17 -2 -31 -12 -65 -23 -79 -7 -7 -9 -18 -6 -23 4 -5 2 -12
-3 -15 -5 -3 -12 -22 -15 -41 -4 -19 -10 -35 -14 -35 -4 0 -8 -9 -8 -20 0 -11
4 -20 8 -20 4 0 5 -6 2 -13 -7 -18 17 -37 41 -32 11 2 23 4 28 4 4 1 7 8 7 16
0 8 5 15 12 15 6 0 9 3 5 6 -3 3 3 25 13 49 10 24 16 46 13 49 -4 3 -1 6 5 6
7 0 12 7 12 15 0 13 20 66 42 108 5 10 7 21 4 25 -2 4 2 13 9 19 11 10 17 10
30 -3 8 -9 13 -20 10 -25 -4 -5 -1 -9 4 -9 6 0 11 -13 11 -30 0 -16 3 -30 8
-30 7 0 32 -63 34 -87 1 -7 4 -13 8 -13 3 0 13 -23 20 -50 8 -29 19 -50 27
-50 8 0 11 -4 8 -10 -3 -5 -3 -10 2 -11 4 0 16 -2 26 -4 9 -2 15 1 11 6 -3 5
-1 9 3 9 5 0 13 8 20 19 9 14 8 24 -2 45 -10 19 -11 26 -2 27 9 0 8 2 -1 6 -6
2 -10 9 -6 14 3 5 0 9 -6 9 -6 0 -10 6 -9 13 1 6 -3 25 -9 40 -7 16 -12 33
-12 39 0 14 -23 81 -30 88 -5 5 -8 15 -15 50 -2 8 -4 15 -5 15 -8 0 -8 65 0
70 8 5 8 11 -1 21 -6 8 -7 14 -2 14 5 0 9 14 8 30 -1 17 2 30 6 30 5 0 6 6 3
13 -6 18 32 19 46 1 7 -7 16 -11 21 -8 5 3 9 0 9 -6 0 -6 5 -8 10 -5 6 3 10 3
10 -2 0 -9 55 -36 80 -40 8 -1 16 -7 18 -13 2 -5 8 -8 13 -4 5 3 9 -1 9 -8 0
-9 3 -9 10 2 8 12 10 13 10 1 0 -10 7 -8 24 8 21 20 24 20 30 6 3 -10 13 -15
20 -12 8 3 16 1 18 -5 2 -6 11 -4 21 6 9 10 17 14 17 9 0 -4 7 1 15 11 8 11
15 16 15 12 0 -8 75 30 101 51 13 11 18 11 28 -1 7 -8 10 -20 6 -26 -3 -5 -2
-10 4 -10 5 0 8 -16 7 -35 -2 -19 0 -35 5 -35 4 0 6 -21 3 -47 -6 -72 -7 -73
-17 -73 -6 0 -7 -3 -4 -7 4 -3 2 -12 -3 -19 -6 -6 -9 -16 -8 -20 2 -5 -2 -22
-9 -39 -6 -16 -15 -39 -19 -50 -4 -11 -6 -23 -6 -28 1 -4 -4 -23 -12 -42 -10
-24 -11 -35 -4 -35 6 0 8 -3 5 -6 -12 -13 14 -44 34 -41 19 3 58 47 42 47 -4
0 -3 4 3 8 5 4 18 34 28 67 11 33 23 66 29 73 5 6 6 12 2 12 -4 0 -2 7 5 15 7
8 9 15 5 15 -5 0 -1 8 8 18 10 10 14 22 10 26 -5 5 1 7 11 5 11 -2 19 -8 19
-14 0 -5 6 -19 13 -30 8 -11 14 -29 14 -41 0 -12 5 -24 11 -26 6 -2 12 -16 12
-31 0 -15 3 -27 8 -27 5 0 9 -11 9 -24 0 -14 7 -32 16 -40 8 -9 12 -16 7 -16
-4 -1 2 -9 15 -20 22 -18 25 -18 48 -3 19 12 22 18 12 24 -10 7 -10 9 2 9 13
0 13 1 0 10 -8 5 -11 12 -7 16 4 4 2 13 -4 20 -6 8 -9 21 -5 29 3 8 1 15 -5
15 -6 0 -7 5 -4 10 3 6 1 10 -5 10 -7 0 -10 6 -7 14 3 7 0 19 -6 25 -6 6 -7
11 -1 11 5 0 3 4 -3 8 -7 4 -14 21 -17 38 -2 16 -8 42 -15 57 -6 16 -9 33 -5
38 3 5 -1 9 -8 9 -8 0 -9 3 -3 8 12 8 13 27 3 38 -4 4 -4 12 0 18 8 13 9 18
11 56 1 27 4 30 26 26 23 -4 104 -44 115 -57 7 -8 44 -22 53 -21 4 1 7 -4 7
-10 0 -9 4 -8 10 2 5 8 10 11 10 6 0 -4 9 2 20 15 10 13 19 18 20 12 0 -9 10
-8 38 5 20 9 39 20 40 25 2 4 7 5 12 2 5 -3 14 1 22 8 14 13 32 16 43 6 9 -10
15 -119 6 -119 -4 0 -8 -7 -9 -15 -1 -8 -3 -22 -4 -30 -1 -8 -6 -15 -11 -15
-6 0 -7 -3 -4 -7 4 -3 2 -12 -4 -20 -6 -7 -9 -13 -5 -13 4 0 0 -13 -9 -30 -10
-20 -12 -30 -4 -30 6 0 9 -6 6 -14 -3 -8 1 -17 9 -20 8 -3 17 1 20 9 4 8 10
12 15 9 5 -3 9 -2 8 3 -3 14 25 73 34 73 4 0 6 3 3 8 -2 4 2 18 9 31 l13 24 7
-22 c4 -12 4 -34 1 -48 -5 -17 -3 -23 5 -17 8 5 9 2 1 -12 -7 -12 -7 -25 -1
-36 6 -11 6 -18 0 -18 -5 0 -11 -16 -13 -35 -2 -20 0 -35 7 -35 6 0 7 -3 0 -8
-6 -4 -12 -20 -14 -37 -1 -16 -6 -34 -9 -40 -6 -10 -8 -15 -10 -47 -2 -12 -9
-15 -29 -12 -28 5 -71 12 -85 13 -5 1 -8 10 -8 22 0 11 5 17 10 14 6 -3 10 -1
10 4 0 21 2 26 12 39 7 8 7 12 0 12 -5 0 -8 9 -5 20 4 13 0 20 -10 20 -8 0
-17 6 -20 14 -9 24 -67 13 -93 -18 -28 -32 -31 -61 -6 -75 9 -6 13 -11 7 -11
-5 0 -3 -4 5 -10 16 -10 10 -20 -17 -25 -10 -2 -18 -4 -18 -5 0 -1 -9 -3 -19
-5 -10 -2 -23 -10 -27 -17 -5 -7 -9 -9 -9 -4 0 5 -8 2 -18 -7 -10 -10 -22 -14
-25 -10 -4 3 -7 1 -7 -6 0 -7 -4 -9 -10 -6 -5 3 -10 1 -10 -4 0 -6 -7 -11 -15
-11 -7 0 -18 -7 -23 -16 -5 -9 -13 -16 -18 -16 -12 -1 -103 -60 -102 -67 2
-27 -6 -27 -32 -1 -16 17 -30 28 -30 25 0 -4 -6 0 -13 7 -8 7 -35 26 -60 42
-26 17 -47 33 -47 38 0 4 -7 5 -15 2 -8 -4 -15 -2 -15 3 0 6 -19 16 -42 23
-54 17 -54 17 -76 19 -10 0 -19 8 -19 16 0 8 3 12 7 10 10 -6 44 44 45 67 1
11 -4 22 -12 25 -7 3 -13 11 -13 18 0 14 -30 28 -67 30 -13 1 -23 -2 -23 -7 0
-4 -6 -8 -13 -8 -8 0 -22 -9 -32 -20 -10 -11 -15 -20 -10 -20 4 0 2 -7 -5 -15
-10 -12 -10 -15 0 -15 8 0 10 -3 7 -7 -4 -4 5 -19 19 -34 l27 -28 -27 -11
c-15 -5 -36 -10 -47 -10 -10 0 -19 -4 -19 -10 0 -5 -9 -10 -20 -10 -11 0 -20
-5 -20 -11 0 -6 -7 -9 -15 -5 -9 3 -15 0 -15 -10 0 -8 -4 -13 -9 -9 -5 3 -15
0 -23 -7 -7 -7 -18 -14 -23 -15 -16 -3 -71 -33 -60 -33 5 0 -10 -11 -35 -24
-79 -42 -92 -113 -19 -109 18 1 35 6 37 12 2 6 8 9 13 5 5 -3 9 0 9 6 0 7 6
10 14 7 8 -3 17 1 20 10 4 9 9 13 13 10 3 -4 18 2 33 13 16 11 33 20 39 20 6
0 11 4 11 9 0 5 8 8 18 6 9 -2 20 -4 23 -4 5 -1 8 -18 12 -88 0 -13 4 -23 7
-23 3 0 7 -14 8 -31 1 -16 3 -33 4 -37 3 -10 -23 -85 -32 -96 -5 -5 -6 -15 -3
-22 3 -8 1 -14 -5 -14 -6 0 -9 -12 -7 -26 1 -15 -3 -28 -11 -31 -8 -3 -12 -9
-9 -13 3 -5 1 -11 -5 -15 -6 -4 -8 -10 -5 -15 3 -4 -2 -24 -10 -44 -28 -67
-15 -116 30 -116 24 0 53 30 47 48 -2 7 0 12 5 12 5 0 9 10 10 22 1 11 7 24
13 28 7 4 11 9 10 11 -5 11 15 66 29 83 10 12 11 16 2 11 -9 -5 -8 0 3 17 9
14 13 28 9 31 -3 4 -1 7 6 7 8 0 11 8 8 19 -6 23 25 53 39 37 5 -6 9 -15 10
-21 0 -5 6 -24 13 -42 7 -18 12 -35 11 -39 -1 -4 3 -10 9 -13 6 -4 13 -18 15
-31 2 -14 5 -25 6 -25 1 0 3 -9 5 -20 2 -11 9 -21 14 -23 6 -2 11 -15 11 -28
0 -13 5 -24 11 -24 5 0 7 -5 4 -10 -8 -12 14 -35 42 -44 22 -7 49 16 39 33 -3
5 0 12 6 14 9 4 10 8 2 14 -6 4 -10 16 -8 26 1 9 -2 17 -7 17 -5 0 -8 3 -7 8
1 4 -4 27 -12 52 -7 25 -13 51 -13 58 0 6 -3 12 -7 12 -3 0 -12 24 -19 53 -8
28 -18 57 -23 63 -5 7 -8 16 -7 20 1 5 0 11 -1 14 -6 11 -5 60 0 60 3 0 5 14
4 30 -1 17 1 30 6 30 4 0 7 8 7 18 0 45 3 51 21 45 9 -4 19 -9 22 -12 3 -3 32
-19 65 -36 33 -16 66 -34 74 -39 26 -19 98 -16 86 3 -6 10 23 23 35 16 4 -3
11 2 14 11 4 9 9 14 13 11 3 -3 26 8 50 24 24 17 47 28 50 25 3 -3 13 2 22 12
20 21 51 27 52 10 2 -30 8 -66 18 -102 10 -41 8 -71 -7 -90 -5 -6 -8 -19 -7
-28 2 -10 -2 -18 -8 -18 -5 0 -7 -3 -4 -7 4 -3 2 -12 -5 -20 -6 -7 -8 -16 -5
-20 3 -3 0 -18 -9 -34 -8 -16 -11 -29 -7 -29 5 0 1 -5 -7 -10 -13 -9 -13 -10
0 -10 12 0 12 -2 2 -8 -7 -5 -15 -33 -19 -63 -5 -48 -12 -60 -60 -108 -49 -51
-83 -71 -83 -50 0 4 -8 5 -17 2 -14 -5 -13 0 6 31 23 36 23 40 8 71 -15 32
-77 67 -77 44 0 -6 -5 -7 -10 -4 -15 10 -71 -56 -60 -70 6 -7 7 -15 3 -18 -3
-4 -2 -7 4 -7 5 0 15 -11 21 -24 9 -19 8 -25 -4 -30 -8 -3 -14 -1 -14 4 0 10
-103 -40 -108 -52 -2 -5 -10 -8 -18 -8 -8 0 -14 -5 -14 -10 0 -6 -3 -9 -7 -8
-13 4 -142 -85 -137 -94 3 -4 0 -8 -7 -8 -8 0 -8 -4 1 -15 7 -8 9 -15 5 -15
-4 0 -2 -6 4 -14 14 -17 43 -11 91 19 19 12 38 22 41 21 4 -1 16 7 26 17 11 9
23 14 26 10 4 -3 7 -1 7 4 0 12 25 12 36 1 5 -6 -29 -30 -48 -34 -5 -1 -10 -3
-13 -4 -3 -1 -10 -3 -15 -4 -6 0 -15 -8 -20 -16 -5 -8 -10 -11 -10 -6 0 5 -6
4 -12 -1 -15 -12 -90 -38 -100 -35 -5 1 -8 -3 -8 -10 0 -6 -3 -8 -7 -5 -3 4
-11 2 -18 -3 -19 -16 -77 -18 -94 -4 -52 42 -113 84 -121 84 -6 0 -10 5 -10
11 0 5 -4 7 -10 4 -5 -3 -10 -2 -10 2 0 9 -62 35 -77 32 -36 -6 -47 28 -14 48
45 28 -9 116 -66 106 -41 -8 -75 -41 -63 -64 7 -11 6 -19 -1 -21 -5 -2 -1 -13
11 -25 11 -12 20 -24 20 -27 0 -2 -17 -10 -37 -16 -21 -7 -53 -21 -70 -32 -18
-11 -33 -17 -33 -13 0 5 -11 -3 -44 -32 -8 -7 -16 -9 -20 -6 -3 4 -6 2 -6 -4
0 -6 -8 -13 -17 -17 -33 -11 -82 -43 -76 -50 3 -3 -1 -6 -11 -6 -11 0 -14 -4
-9 -12 4 -7 -5 -5 -20 5 -14 9 -31 17 -37 17 -12 0 -41 25 -41 34 1 8 -49 56
-49 48 -1 -4 -10 4 -20 17 -11 13 -20 19 -20 15 0 -5 -4 -4 -8 1 -10 15 -66
50 -74 47 -5 -1 -8 2 -8 8 0 5 -9 10 -20 10 -11 0 -20 5 -20 11 0 5 -5 7 -10
4 -6 -3 -10 -1 -10 5 0 7 -7 10 -15 6 -8 -3 -15 -1 -15 4 0 6 -3 9 -7 9 -22
-4 -23 3 -4 27 22 28 28 74 10 74 -5 0 -8 4 -5 8 7 11 -60 43 -69 34 -4 -4
-10 -7 -15 -7 -15 0 -63 -59 -51 -63 6 -2 8 -8 5 -14 -3 -5 4 -20 17 -34 12
-13 21 -24 18 -25 -2 0 -12 -2 -21 -4 -10 -2 -18 2 -18 8 0 5 -3 8 -6 4 -5 -5
-35 16 -76 56 -10 9 -23 17 -30 17 -6 0 -9 3 -5 6 3 3 -7 17 -24 31 -18 15
-29 34 -29 49 0 17 -4 23 -12 18 -8 -5 -9 0 -6 14 4 12 2 22 -3 22 -5 0 -8 3
-7 8 2 9 -10 59 -23 92 -5 14 -11 35 -14 48 -2 13 -10 36 -18 51 -11 22 -11
32 -2 44 6 9 10 29 9 46 -1 17 2 33 7 36 4 3 6 12 3 19 -11 29 15 23 86 -20
96 -57 113 -61 139 -35 12 12 26 19 31 16 12 -7 90 25 90 37 0 4 9 8 20 8 11
0 20 5 20 11 0 5 4 8 9 4 5 -3 16 1 24 9 8 8 17 13 19 10 3 -2 11 2 18 11 7 8
19 15 26 15 16 0 37 -46 28 -61 -3 -5 1 -9 8 -9 10 0 10 -2 -1 -9 -10 -6 -10
-10 -1 -16 6 -4 9 -13 6 -21 -3 -8 -1 -14 3 -14 11 0 9 -70 -2 -87 -5 -7 -5
-17 -2 -23 3 -5 1 -10 -6 -10 -7 0 -9 -3 -6 -7 4 -3 2 -12 -4 -20 -6 -7 -9
-13 -5 -13 4 0 0 -13 -8 -29 -9 -16 -12 -31 -9 -35 4 -3 2 -6 -4 -6 -6 0 -10
-10 -9 -22 1 -13 -4 -29 -11 -36 -7 -7 -9 -20 -6 -28 3 -9 0 -19 -6 -24 -7 -4
-15 -23 -18 -43 -4 -30 0 -38 21 -52 33 -22 60 -7 77 42 7 21 11 40 10 42 -2
2 1 7 6 10 12 8 37 62 39 83 0 10 7 24 14 33 7 8 9 15 5 15 -4 0 -2 7 5 15 7
8 9 15 5 15 -4 0 -2 7 5 15 7 8 9 15 5 15 -4 0 -2 7 5 15 16 20 44 20 37 0 -4
-8 -2 -17 4 -20 5 -4 7 -11 4 -16 -4 -5 -1 -9 4 -9 6 0 10 -3 9 -7 -1 -5 4
-21 10 -36 7 -16 12 -33 12 -38 0 -5 4 -17 9 -27 19 -38 41 -97 40 -109 -1 -3
6 -10 15 -15 9 -5 14 -13 11 -19 -4 -5 3 -9 14 -9 12 0 21 -5 21 -11 0 -17 31
11 40 36 4 11 3 26 -2 33 -6 6 -7 12 -3 12 4 0 2 7 -5 15 -7 8 -9 15 -6 15 4
0 4 6 -1 13 -8 12 -13 32 -15 55 -1 6 -5 12 -10 12 -5 0 -7 4 -3 9 3 5 1 12
-4 15 -5 4 -8 14 -7 24 2 9 -1 20 -6 23 -5 3 -11 19 -14 34 -3 16 -10 35 -16
42 -8 10 -7 13 3 14 10 0 11 2 1 6 -6 2 -10 9 -6 14 3 5 1 9 -4 9 -13 0 -13
69 -1 92 8 16 8 19 -1 13 -9 -6 -9 -2 0 15 6 12 9 28 6 36 -3 8 0 14 6 14 7 0
7 4 -1 14 -10 12 -9 14 6 11 10 -2 19 -4 21 -4 1 -1 4 -1 7 -1 3 1 13 -6 21
-15 9 -8 22 -15 30 -15 8 0 14 -5 14 -11 0 -5 5 -7 10 -4 6 3 10 1 10 -5 0 -6
4 -9 9 -5 5 3 15 -1 23 -8 37 -38 96 -48 118 -22 10 12 10 15 -1 15 -9 0 -10
3 -2 11 14 14 -18 54 -59 75 -15 8 -37 24 -48 36 -11 12 -20 18 -20 13 0 -4
-8 2 -19 13 -10 12 -21 19 -24 15 -4 -3 -15 3 -24 13 -19 21 -91 49 -137 53
-18 1 -15 19 7 51 19 27 22 56 7 65 -6 4 -8 11 -5 16 4 5 -2 9 -11 9 -10 0
-14 3 -10 7 4 4 -8 13 -26 19 -28 9 -38 8 -65 -10 -32 -21 -61 -66 -43 -66 5
0 7 -6 4 -13 -2 -7 4 -23 15 -36 16 -18 17 -26 8 -36 -8 -8 -14 -9 -18 -3 -4
7 -9 6 -13 -1 -4 -6 -12 -9 -17 -6 -5 4 -9 1 -9 -5 0 -6 -4 -8 -10 -5 -5 3
-10 1 -10 -5 0 -7 -6 -10 -13 -7 -7 3 -24 -4 -38 -14 -13 -10 -29 -19 -36 -19
-6 0 -19 -8 -29 -17 -10 -10 -20 -18 -24 -18 -14 0 -139 -88 -135 -95 3 -4 -2
-10 -9 -13 -8 -3 -29 7 -47 23 -19 16 -36 27 -39 25 -4 -2 -13 5 -20 16 -8 10
-18 19 -22 19 -4 0 -29 13 -55 28 -27 16 -54 27 -61 24 -6 -2 -12 1 -12 7 0 6
-6 8 -14 5 -24 -9 -28 15 -7 42 23 29 27 54 10 54 -5 0 -8 4 -5 9 3 4 -5 18
-18 30 -17 16 -26 19 -31 11 -6 -9 -9 -9 -15 1 -7 10 -12 10 -23 1 -7 -7 -17
-9 -20 -5 -4 3 -7 -1 -7 -9 0 -9 -6 -21 -14 -27 -19 -16 -12 -48 15 -77 l22
-23 -29 -6 c-16 -3 -43 -12 -61 -20 -31 -14 -32 -13 -52 20 -11 20 -15 35 -9
35 7 0 7 4 0 13 -5 6 -13 26 -16 42 -7 35 -14 67 -21 97 -2 12 -6 37 -7 55 -1
18 -7 33 -13 33 -5 0 -3 5 5 10 13 9 13 10 0 10 -13 0 -13 1 0 10 8 5 11 10 6
10 -4 0 -1 11 8 25 9 14 13 25 9 25 -5 0 -3 4 4 8 6 4 13 16 15 27 1 11 7 23
13 27 12 9 35 -10 35 -28 0 -8 4 -22 10 -32 5 -9 16 -34 24 -54 12 -30 20 -38
40 -38 15 0 26 5 26 11 0 5 5 7 11 3 6 -3 3 8 -6 25 -9 17 -13 36 -10 41 3 6
1 10 -4 10 -6 0 -11 9 -11 19 0 11 -5 23 -10 26 -6 4 -8 10 -5 15 3 5 1 11 -4
15 -6 3 -8 12 -4 20 3 8 0 15 -7 15 -6 0 -8 5 -5 10 3 6 0 10 -7 11 -9 0 -10
2 -1 5 7 3 10 11 7 19 -3 7 -1 16 5 19 6 4 8 12 5 19 -7 19 34 18 56 0 11 -9
29 -18 42 -20 12 -2 27 -8 32 -13 5 -5 16 -5 28 1 12 6 18 6 18 0 0 -7 9 -7
25 1 14 6 25 15 25 20 0 4 9 8 19 8 11 0 23 5 26 11 7 11 45 28 57 25 4 0 14
8 22 19 9 12 16 15 17 8 3 -23 4 -28 13 -41 4 -7 5 -19 2 -27 -3 -8 -1 -15 3
-15 5 0 8 -11 6 -25 -1 -14 3 -25 9 -25 7 0 7 -3 1 -8 -5 -4 -11 -18 -12 -32
-2 -38 -10 -68 -27 -101 -10 -20 -11 -29 -3 -29 7 0 6 -4 -3 -10 -8 -5 -11
-10 -6 -10 5 0 3 -6 -3 -14 -6 -7 -12 -25 -13 -40 -1 -14 -5 -26 -9 -26 -4 0
-9 -9 -12 -20 -3 -13 -1 -18 5 -13 7 4 8 1 3 -7 -15 -24 -12 -55 7 -73 10 -9
18 -12 18 -6 0 5 4 8 9 4 12 -7 53 44 45 56 -3 5 0 9 5 9 6 0 11 12 11 26 0
17 4 23 12 18 7 -5 9 -2 5 8 -3 9 0 21 6 27 6 6 8 11 4 11 -4 0 -1 13 7 29 9
16 12 31 9 35 -4 3 -1 6 5 6 7 0 11 3 10 8 -5 19 14 51 28 45 8 -3 13 -8 10
-10 -2 -3 4 -21 15 -40 11 -19 17 -38 14 -44 -4 -5 -1 -9 6 -9 7 0 9 -3 6 -7
-4 -3 0 -17 8 -30 9 -13 13 -28 10 -33 -3 -6 -2 -10 3 -10 5 0 12 -12 15 -28
9 -43 67 -95 67 -60 0 9 4 8 10 -2 8 -12 10 -11 10 8 0 12 5 22 10 22 7 0 6 8
-2 23 -7 12 -11 30 -9 40 1 9 -3 17 -9 17 -6 0 -8 5 -5 10 3 6 0 10 -7 10 -9
0 -9 3 2 10 10 6 11 10 3 10 -7 0 -12 3 -12 8 1 4 0 9 -1 12 -4 13 -12 47 -13
63 -1 9 -4 17 -8 17 -4 0 -6 8 -5 18 2 9 -1 20 -6 23 -5 3 -10 22 -11 42 -1
20 -6 37 -11 37 -5 0 -3 7 4 15 9 11 9 15 1 15 -8 0 -9 6 -3 18 4 9 8 24 7 32
0 8 4 18 10 22 6 5 4 8 -5 8 -12 0 -12 2 -2 9 16 10 62 2 62 -10 0 -5 9 -9 20
-9 11 0 20 -4 20 -10 0 -5 5 -10 10 -10 6 0 22 -8 37 -17 32 -21 52 -25 75
-12 38 20 19 61 -52 109 -19 14 -44 32 -54 42 -11 10 -28 20 -38 24 -10 3 -18
10 -18 15 0 5 -3 8 -7 7 -5 -1 -21 4 -38 11 -16 7 -32 12 -34 11 -2 -1 -8 4
-12 12 -7 10 -9 10 -9 -2 -1 -12 -3 -11 -11 3 -8 13 -7 22 1 32 7 8 10 22 6
30 -3 8 0 15 6 15 7 0 7 4 0 13 -6 6 -10 15 -9 19 1 4 -8 16 -20 28 -15 13
-23 16 -23 8 0 -11 -2 -10 -9 0 -11 19 -31 12 -71 -26 -21 -21 -30 -36 -23
-39 7 -2 9 -11 6 -18 -3 -8 2 -22 11 -31 18 -18 13 -34 -11 -34 -23 0 -132
-57 -178 -94 -21 -17 -35 -24 -30 -16 7 13 -30 -13 -45 -31 -13 -15 -38 -14
-67 3 -18 10 -49 27 -68 38 -19 11 -35 16 -35 12 0 -4 -7 2 -15 12 -8 11 -12
29 -9 43 4 14 2 23 -6 23 -6 0 -8 5 -5 10 4 6 3 10 -2 9 -17 -3 -53 14 -47 22
3 5 -1 9 -8 9 -9 0 -9 3 2 10 8 5 11 10 6 10 -5 0 -3 7 4 15 7 8 10 15 7 15
-3 0 0 15 8 34 8 18 11 36 8 40 -4 3 -2 6 3 6 5 0 11 10 11 22 1 13 7 24 13
26 5 2 8 8 4 13 -3 5 -1 9 4 9 9 0 25 37 23 53 -1 4 4 7 9 7 6 0 10 7 10 15 0
8 4 15 10 15 5 0 7 6 4 14 -3 7 6 23 20 33 14 11 22 24 18 28 -4 4 0 6 8 3 8
-3 27 4 43 14 15 11 27 16 27 12 0 -3 7 -1 15 6 13 11 18 10 30 -6 8 -10 15
-26 15 -34 1 -8 3 -25 6 -37 2 -13 -1 -23 -8 -23 -6 0 -9 -3 -5 -6 3 -4 -2
-28 -13 -55 -10 -27 -16 -49 -13 -49 2 0 -3 -8 -13 -17 -11 -12 -13 -18 -5
-21 9 -3 9 -7 0 -18 -9 -11 -9 -14 0 -14 7 0 9 -4 6 -10 -3 -6 4 -10 17 -10
19 0 29 11 46 46 12 25 20 50 17 55 -4 5 -2 9 3 9 6 0 13 11 16 24 6 23 36 45
36 26 0 -18 2 -25 13 -45 6 -11 12 -27 13 -35 2 -8 8 -16 14 -18 5 -2 8 -7 5
-12 -3 -5 5 -21 18 -36 23 -26 25 -27 48 -11 13 9 19 17 13 17 -5 0 -11 12
-12 26 -1 14 -8 35 -16 46 -8 11 -12 27 -9 34 3 8 0 14 -7 14 -6 0 -9 4 -5 9
3 5 1 12 -4 16 -6 3 -8 12 -4 20 3 8 0 15 -7 15 -9 0 -11 12 -6 43 4 23 8 47
8 53 2 13 28 15 28 2 0 -5 5 -6 10 -3 6 3 10 2 10 -3 0 -9 37 -25 53 -23 4 1
7 -4 7 -10 0 -6 9 -9 20 -6 10 3 21 0 23 -7 3 -8 8 -7 19 2 9 7 18 9 20 3 1
-5 19 -2 38 8 47 23 112 61 126 72 6 5 14 6 17 2 4 -3 7 0 8 8 1 21 28 -43 29
-68 0 -13 4 -23 10 -23 6 0 6 -9 0 -25 -7 -17 -6 -25 1 -25 7 0 6 -6 -2 -17
-11 -12 -11 -17 -2 -20 9 -3 8 -11 -3 -29 -9 -13 -13 -24 -9 -24 4 0 2 -7 -5
-15 -7 -8 -10 -15 -6 -15 4 0 0 -12 -7 -27 -8 -16 -12 -34 -10 -40 3 -7 -1
-13 -7 -13 -7 0 -10 -8 -7 -20 3 -11 -1 -26 -8 -34 -8 -7 -12 -16 -9 -19 3 -3
1 -15 -6 -26 -8 -16 -8 -21 2 -22 10 0 10 -2 1 -6 -9 -3 -10 -10 -3 -23 13
-24 43 -30 65 -14 10 8 15 14 11 14 -5 0 -3 6 3 13 6 8 8 17 4 20 -3 4 -1 7 6
7 7 0 9 5 6 10 -3 6 0 10 7 11 8 0 9 2 2 5 -8 4 -6 16 6 42 32 66 56 132 51
141 -2 2 3 7 11 12 13 8 37 -22 38 -47 0 -6 8 -29 17 -50 17 -41 23 -60 25
-81 1 -7 5 -13 10 -13 4 0 7 -3 6 -7 -3 -14 32 -86 39 -80 3 4 12 2 20 -4 10
-9 13 -8 13 2 0 11 2 11 10 -1 8 -13 10 -12 10 3 0 9 6 17 13 17 8 0 9 3 1 8
-6 4 -10 15 -8 25 1 9 -2 17 -8 17 -6 0 -8 6 -5 14 3 7 -1 25 -8 39 -7 14 -11
28 -7 31 3 3 -1 6 -9 6 -11 0 -11 2 1 10 12 8 12 10 1 10 -8 0 -12 3 -8 6 3 4
-1 21 -10 38 -10 17 -16 35 -15 40 2 4 -4 27 -13 50 -12 31 -14 48 -6 69 7 17
7 28 1 32 -7 4 -6 13 0 26 6 11 8 24 5 29 -3 6 0 10 7 10 9 0 9 3 -2 10 -12 8
-9 10 12 10 15 0 33 -6 40 -12 7 -7 20 -14 28 -16 8 -2 18 -9 22 -15 4 -7 8
-7 8 -2 0 7 3 7 8 0 10 -15 68 -45 84 -45 8 0 20 12 27 26 10 24 8 29 -31 67
-24 23 -55 48 -70 56 -16 8 -28 18 -28 23 0 4 -6 8 -13 8 -7 0 -29 11 -50 25
-20 14 -37 23 -37 19 0 -3 -7 -1 -15 6 -9 7 -18 10 -22 7 -3 -4 -12 -2 -19 4
-11 9 -11 15 1 32 17 24 21 92 5 82 -5 -3 -10 1 -10 10 0 9 -4 13 -10 10 -5
-3 -10 -1 -10 6 0 7 -3 9 -6 6 -4 -3 -15 -2 -25 4 -13 7 -19 6 -19 -1 0 -6 -4
-9 -9 -6 -5 3 -21 -10 -35 -29 -15 -19 -22 -35 -17 -35 6 0 11 -5 11 -11 0 -5
-4 -7 -10 -4 -6 3 -7 -1 -4 -9 3 -9 11 -14 17 -13 10 2 12 -12 8 -42 0 -5 -9
-8 -18 -6 -10 1 -24 -2 -30 -8 -7 -5 -13 -6 -13 -3 0 4 -10 -2 -22 -13 -11
-11 -24 -18 -28 -16 -4 2 -16 -4 -26 -13 -10 -10 -34 -24 -51 -31 -18 -7 -33
-17 -33 -22 0 -5 -6 -9 -12 -9 -7 0 -26 -11 -41 -24 -32 -27 -46 -25 -90 11
-16 13 -33 21 -38 17 -5 -3 -9 0 -9 6 0 6 -4 8 -10 5 -5 -3 -10 -1 -10 4 0 6
-3 10 -7 9 -5 -1 -21 4 -36 10 -24 10 -26 15 -17 32 13 25 -5 64 -26 56 -8 -3
-14 0 -14 6 0 7 -5 6 -15 -2 -12 -10 -15 -10 -16 1 0 8 -4 3 -10 -9 -5 -13 -6
-29 -2 -34 4 -7 1 -8 -6 -3 -10 6 -11 3 -3 -11 11 -22 5 -47 -9 -38 -6 3 -16
1 -23 -5 -8 -7 -29 -14 -47 -16 l-34 -4 23 19 c12 10 22 22 22 27 0 10 69 78
83 81 14 4 44 37 40 45 -2 4 3 7 11 7 9 0 16 7 16 17 0 9 3 14 6 10 3 -3 13 2
23 11 44 42 82 72 91 72 6 0 13 7 16 15 4 8 10 12 15 9 5 -3 9 -1 9 5 0 5 10
13 23 17 12 4 25 12 29 18 4 6 9 8 12 5 7 -7 -13 -79 -22 -79 -4 0 -8 -10 -9
-22 -1 -13 -4 -36 -7 -53 -5 -29 4 -57 18 -56 8 0 41 32 42 40 0 3 8 23 17 43
10 21 17 42 17 48 0 5 4 10 9 10 5 0 11 8 13 17 3 15 4 15 21 -1 9 -10 15 -22
12 -27 -4 -5 -1 -9 4 -9 6 0 11 -6 11 -13 0 -26 41 -97 55 -97 8 0 18 0 23 0
4 0 7 4 7 9 0 5 3 12 6 16 9 9 -1 45 -13 45 -5 0 -6 5 -3 10 3 6 2 10 -2 10
-5 0 -9 8 -10 18 -2 29 -8 47 -17 53 -4 4 -9 21 -10 38 0 17 -5 31 -10 31 -4
0 -3 7 4 15 7 8 9 15 6 15 -4 0 -2 8 3 19 7 13 18 17 36 14 14 -3 25 -10 25
-15 0 -5 5 -6 10 -3 6 3 10 1 10 -5 0 -6 5 -8 10 -5 6 3 10 2 10 -4 0 -15 50
-8 60 9 6 10 2 20 -13 35 -23 22 -35 51 -17 40 6 -4 19 -4 28 0 9 4 30 9 46
11 17 3 34 10 38 17 6 9 8 8 8 -3 0 -11 2 -12 8 -3 4 7 16 10 27 9 11 -2 25
-1 30 3 6 3 26 7 45 9 56 4 60 5 60 13 0 9 33 6 41 -5z m1314 -2108 c-3 -12
-10 -25 -16 -28 -6 -4 -10 -11 -8 -16 1 -5 -5 -11 -15 -12 -16 -3 -16 -1 -5
20 7 12 12 25 12 28 -1 14 11 30 22 30 9 0 12 -8 10 -22z m-1282 -665 c5 -27
-17 -61 -28 -44 -6 11 -45 10 -45 -1 0 -4 -11 -3 -24 3 -15 7 -22 17 -19 26 3
7 8 12 10 9 3 -3 21 6 40 19 41 27 59 24 66 -12z m274 4 c38 -28 31 -42 -21
-42 -29 0 -40 4 -42 17 -1 10 2 20 7 24 5 3 7 10 4 15 -11 17 21 9 52 -14z"/>
<path d="M2449 3847 c-27 -20 -40 -52 -26 -66 9 -10 8 -15 -8 -24 -11 -6 -21
-10 -23 -8 -6 5 -144 -74 -149 -86 -3 -7 -9 -10 -14 -7 -5 3 -9 -2 -9 -10 0
-9 0 -19 0 -23 0 -15 56 -6 104 16 50 24 64 21 71 -15 2 -11 4 -19 5 -19 1 0
3 -8 5 -17 2 -10 0 -18 -3 -18 -4 0 -8 -14 -9 -32 -1 -17 -8 -35 -14 -39 -6
-4 -8 -12 -5 -18 4 -6 3 -11 -3 -11 -6 0 -8 -7 -5 -15 4 -8 1 -15 -6 -15 -7 0
-10 -7 -7 -15 4 -8 2 -17 -2 -20 -11 -6 -2 -45 11 -45 5 0 6 -4 3 -10 -11 -17
11 -11 27 8 14 17 53 95 49 100 -4 5 30 62 38 62 4 0 14 -18 21 -40 7 -22 17
-40 22 -40 4 0 8 -10 8 -22 0 -13 11 -35 24 -50 22 -26 24 -27 39 -10 16 18
20 62 5 62 -4 0 -8 9 -8 19 0 11 -5 23 -11 26 -6 4 -8 13 -5 21 3 8 0 14 -6
14 -6 0 -8 3 -5 7 4 3 3 11 -2 17 -14 16 -20 73 -12 103 7 25 41 43 41 22 0
-6 5 -7 10 -4 6 3 10 1 10 -5 0 -6 5 -8 10 -5 6 3 10 2 10 -2 0 -5 12 -13 28
-19 34 -13 79 5 60 24 -7 7 -8 12 -3 12 5 0 -7 11 -27 25 -20 14 -41 25 -47
25 -5 0 -11 3 -13 8 -1 4 -26 18 -55 31 -47 22 -51 27 -48 52 2 16 -1 29 -6
29 -6 0 -8 4 -5 8 2 4 -4 13 -15 20 -15 10 -19 10 -19 0 0 -10 -2 -10 -8 -1
-5 9 -11 9 -23 0z"/>
</g>
</svg>
